<svg xmlns="http://www.w3.org/2000/svg" viewBox="0 0 500 300" fill="none">
  <rect width="500" height="300" rx="24" fill="url(#g)"/>
  <rect x="90" y="70" width="160" height="110" rx="14" transform="rotate(-8 90 70)" fill="#F8FBFF" stroke="#D9E6FF"/>
  <rect x="110" y="95" width="90" height="10" rx="5" fill="#C7D9FF"/>
  <rect x="110" y="115" width="120" height="8" rx="4" fill="#E1ECFF"/>
  <rect x="110" y="132" width="120" height="8" rx="4" fill="#E1ECFF"/>
  <rect x="110" y="149" width="96" height="8" rx="4" fill="#E1ECFF"/>
  <rect x="225" y="108" width="170" height="120" rx="14" transform="rotate(7 225 108)" fill="#0E1830" stroke="#55658D"/>
  <rect x="247" y="132" width="50" height="8" rx="4" fill="#4D8DFF"/>
  <rect x="247" y="150" width="80" height="8" rx="4" fill="#FCA5A5"/>
  <rect x="247" y="168" width="110" height="8" rx="4" fill="#86EFAC"/>
  <rect x="247" y="186" width="90" height="8" rx="4" fill="#FDE68A"/>
  <defs><linearGradient id="g" x1="0" y1="0" x2="500" y2="300"><stop stop-color="#2E6EF0"/><stop offset="1" stop-color="#4A8DFF"/></linearGradient></defs>
</svg>