<svg xmlns="http://www.w3.org/2000/svg" viewBox="0 0 500 300" fill="none">
  <rect width="500" height="300" rx="24" fill="url(#g)"/>
  <rect x="180" y="48" width="78" height="166" rx="18" transform="rotate(8 180 48)" fill="#F8FBFF" stroke="#D9E6FF"/>
  <rect x="196" y="72" width="46" height="10" rx="5" fill="#C7D9FF"/>
  <rect x="196" y="98" width="46" height="30" rx="8" fill="#E1ECFF"/>
  <rect x="196" y="138" width="46" height="16" rx="8" fill="#DBEAFE"/>
  <rect x="196" y="161" width="46" height="16" rx="8" fill="#DBEAFE"/>
  <rect x="255" y="94" width="84" height="178" rx="18" transform="rotate(-7 255 94)" fill="#F8FBFF" stroke="#D9E6FF"/>
  <rect x="272" y="118" width="50" height="10" rx="5" fill="#C7D9FF"/>
  <rect x="272" y="142" width="50" height="24" rx="8" fill="#FDE68A"/>
  <rect x="272" y="176" width="50" height="16" rx="8" fill="#DBEAFE"/>
  <rect x="272" y="199" width="50" height="16" rx="8" fill="#DBEAFE"/>
  <defs><linearGradient id="g" x1="0" y1="0" x2="500" y2="300"><stop stop-color="#2E6EF0"/><stop offset="1" stop-color="#4A8DFF"/></linearGradient></defs>
</svg>